<svg xmlns="http://www.w3.org/2000/svg" width="24" height="24" viewBox="0 0 24 24">
  <path id="website" d="M14,2a12.014,12.014,0,1,0,8.481,3.519A12,12,0,0,0,14,2Zm9.992,16.364H20.616a19.764,19.764,0,0,0,.459-3.818h3.806A10.82,10.82,0,0,1,23.992,18.364ZM3.119,14.545H6.925a19.764,19.764,0,0,0,.459,3.818H4.008a10.82,10.82,0,0,1-.89-3.818Zm.89-4.909H7.384a19.764,19.764,0,0,0-.459,3.818H3.119a10.82,10.82,0,0,1,.89-3.818ZM14.545,8.545v-5.4c1.985.327,3.689,2.42,4.643,5.4ZM19.5,9.636a18.537,18.537,0,0,1,.491,3.818H14.545V9.636Zm-6.041-6.5v5.4H8.812C9.765,5.561,11.47,3.468,13.455,3.141Zm0,6.5v3.818H8.015a18.537,18.537,0,0,1,.491-3.818ZM8.015,14.545h5.439v3.818H8.5a18.536,18.536,0,0,1-.489-3.818Zm5.439,4.909v5.4c-1.985-.327-3.689-2.42-4.643-5.4Zm1.091,5.4v-5.4h4.643C18.235,22.439,16.53,24.532,14.545,24.859Zm0-6.5V14.545h5.439a18.537,18.537,0,0,1-.491,3.818Zm6.53-4.909a19.764,19.764,0,0,0-.459-3.818h3.375a10.82,10.82,0,0,1,.89,3.818Zm2.358-4.909h-3.1a11.573,11.573,0,0,0-2.6-4.781,10.953,10.953,0,0,1,5.7,4.781ZM10.263,3.765a11.573,11.573,0,0,0-2.6,4.781h-3.1a10.953,10.953,0,0,1,5.7-4.781Zm-5.7,15.69h3.1a11.573,11.573,0,0,0,2.6,4.781,10.953,10.953,0,0,1-5.7-4.781Zm13.171,4.781a11.573,11.573,0,0,0,2.6-4.781h3.1A10.953,10.953,0,0,1,17.737,24.235Z" transform="translate(-2 -2)" fill="#4c8394"/>
</svg>
